<?xml version="1.0" standalone="no"?>
<!DOCTYPE svg PUBLIC "-//W3C//DTD SVG 20010904//EN"
 "http://www.w3.org/TR/2001/REC-SVG-20010904/DTD/svg10.dtd">
<svg version="1.0" xmlns="http://www.w3.org/2000/svg"
 width="319.000000pt" height="121.000000pt" viewBox="0 0 319.000000 121.000000"
 preserveAspectRatio="xMidYMid meet">

<g transform="translate(0.000000,121.000000) scale(0.100000,-0.100000)"
fill="#000000" stroke="none">
<path d="M270 1185 c-15 -18 -18 -16 49 -19 37 -1 55 2 58 11 8 21 -3 26 -26
11 -17 -10 -25 -10 -41 0 -25 15 -25 15 -40 -3z"/>
<path d="M401 1186 c-8 -10 -9 -16 -1 -21 13 -8 30 3 30 21 0 18 -14 18 -29 0z"/>
<path d="M445 1190 c-11 -17 5 -30 36 -30 35 0 40 25 7 34 -31 8 -36 8 -43 -4z"/>
<path d="M550 1190 c-11 -7 -12 -12 -3 -21 13 -13 33 -4 33 17 0 16 -9 18 -30
4z"/>
<path d="M597 1194 c-18 -18 -5 -34 27 -34 30 0 56 14 45 24 -10 9 -66 16 -72
10z"/>
<path d="M707 1193 c-4 -3 -7 -12 -7 -20 0 -19 96 -18 103 2 8 18 -10 30 -26
17 -7 -5 -21 -6 -32 -1 -26 10 -30 10 -38 2z"/>
<path d="M825 1192 c-3 -3 -5 -11 -5 -17 0 -15 147 -18 156 -3 4 5 10 5 17 0
19 -15 72 -9 72 7 0 11 -17 15 -73 17 -40 1 -75 -3 -78 -7 -3 -5 -11 -6 -17
-2 -15 9 -64 13 -72 5z"/>
<path d="M1085 1190 c-8 -13 3 -30 20 -30 14 0 27 24 18 34 -10 9 -31 7 -38
-4z"/>
<path d="M1147 1193 c-18 -17 -4 -31 33 -31 22 0 40 3 40 9 0 5 7 9 16 9 8 0
13 -4 9 -9 -3 -6 73 -10 195 -11 134 0 199 3 195 10 -3 5 -1 10 4 10 6 0 11
-4 11 -10 0 -15 187 -13 194 3 5 10 7 10 12 0 8 -18 32 -16 51 2 13 14 -24 15
-357 15 -205 -1 -375 2 -378 5 -7 7 -17 6 -25 -2z"/>
<path d="M1932 1175 c-11 -13 -3 -15 57 -15 46 0 71 4 75 13 5 10 7 10 12 0 8
-19 74 -17 74 2 0 22 -199 21 -218 0z"/>
<path d="M2171 1178 c-1 -13 7 -18 25 -18 14 0 23 4 19 9 -3 5 5 12 17 14 17
3 14 5 -10 6 -20 0 -31 -3 -27 -9 3 -5 2 -10 -4 -10 -5 0 -12 6 -14 13 -3 7
-6 5 -6 -5z"/>
<path d="M2293 1183 c9 -2 25 -2 35 0 9 3 1 5 -18 5 -19 0 -27 -2 -17 -5z"/>
<path d="M2478 1183 c7 -3 16 -2 19 1 4 3 -2 6 -13 5 -11 0 -14 -3 -6 -6z"/>
<path d="M2395 1170 l-50 -7 58 -1 c37 -1 56 2 52 8 -3 6 -7 9 -8 8 -1 0 -24
-4 -52 -8z"/>
<path d="M2258 1163 c18 -2 45 -2 60 0 15 2 0 4 -33 4 -33 0 -45 -2 -27 -4z"/>
<path d="M76 1121 c-12 -14 -14 -20 -5 -23 9 -3 9 -9 1 -24 -11 -19 -11 -19
-13 1 -2 40 -28 -69 -40 -168 -15 -125 -14 -499 1 -622 21 -172 41 -211 140
-266 21 -12 248 -14 1410 -17 1288 -2 1389 -1 1440 15 81 25 128 73 146 148
16 70 19 169 4 160 -6 -4 -10 5 -10 20 0 15 -4 24 -10 20 -5 -3 -10 0 -11 7 0
7 -7 -18 -15 -56 -7 -38 -15 -70 -16 -71 -2 -2 -21 -5 -43 -7 l-40 -3 2 205
c2 130 -1 198 -6 185 -8 -16 -10 -13 -10 18 -1 31 -5 39 -28 48 -16 6 -119 13
-230 16 l-203 6 0 -135 c0 -74 -3 -163 -6 -197 l-7 -61 32 0 c30 0 31 1 33 48
0 26 2 52 3 57 2 6 3 20 4 33 1 22 4 23 84 20 l82 -3 -4 -77 -3 -78 110 0 c61
0 113 -3 115 -7 3 -5 0 -34 -5 -66 l-10 -58 -37 7 c-20 4 -53 8 -73 8 -21 0
-38 4 -38 9 0 4 -5 5 -10 2 -18 -11 -10 11 10 30 28 25 25 35 -10 35 -21 0
-39 -9 -59 -32 l-28 -32 5 33 c4 32 4 32 -29 29 -29 -2 -35 -8 -40 -33 l-7
-30 -1 33 c-1 29 -4 32 -31 32 -25 0 -30 -4 -30 -25 0 -16 -6 -25 -15 -25 -9
0 -21 11 -27 25 -9 21 -18 25 -55 25 -38 0 -43 -3 -44 -22 -1 -23 -1 -23 -8 1
-9 32 -61 40 -68 10 -5 -19 -6 -19 -25 -3 -12 11 -41 19 -78 22 -55 4 -60 3
-69 -19 -9 -22 -10 -22 -11 -4 -1 11 -4 15 -6 9 -4 -9 -13 -8 -34 3 -39 19
-146 14 -142 -6 3 -12 0 -12 -12 -1 -13 10 -19 10 -33 -1 -10 -8 -14 -9 -10
-2 11 18 -10 26 -49 18 -23 -4 -32 -10 -27 -18 4 -8 1 -7 -10 1 -21 18 -113
22 -110 5 2 -7 -4 -10 -12 -7 -8 4 -15 10 -15 14 0 17 -108 5 -129 -14 -12
-11 -24 -16 -28 -13 -3 4 0 7 8 8 35 1 -81 29 -123 29 -43 0 -48 -2 -49 -22
l0 -23 -9 23 c-9 21 -15 23 -77 20 -67 -3 -68 -4 -74 -33 l-6 -30 -4 30 c-3
26 -8 30 -34 30 -23 0 -29 -4 -27 -18 3 -20 -9 -22 -27 -4 -10 10 -11 8 -6 -8
3 -11 -1 -8 -10 8 -13 23 -21 27 -52 24 -30 -2 -38 -7 -44 -27 l-6 -25 -4 25
c-4 24 -7 25 -74 25 -65 0 -69 -1 -76 -25 -4 -14 -8 -18 -8 -10 -1 11 -3 12
-9 2 -6 -9 -14 -6 -30 13 l-22 25 -217 -2 -217 -3 -13 -25 c-7 -14 -19 -23
-25 -21 -7 2 -35 4 -63 5 l-50 2 -3 37 -3 37 72 0 72 0 -6 83 c-4 45 -7 134
-7 198 l0 117 -76 -4 c-42 -2 -80 -6 -85 -10 -5 -3 -9 -91 -9 -197 0 -170 -2
-189 -15 -171 -8 10 -15 14 -15 8 0 -14 -33 -14 -42 0 -4 6 -8 -18 -9 -54 l-1
-65 -15 55 c-17 66 -27 642 -12 703 5 20 14 56 19 80 6 23 13 50 16 60 7 23
-9 22 -30 -2z m727 -853 c11 -9 17 -31 19 -67 3 -51 2 -55 -23 -61 -24 -7 -28
-5 -33 22 -5 25 -10 29 -34 27 -16 -2 -40 4 -54 13 -67 44 -138 54 -163 24
-15 -18 -50 -25 -69 -14 -11 6 -22 6 -31 -2 -13 -11 -11 -17 12 -44 l26 -31
-23 -3 c-31 -5 -40 7 -47 68 -9 79 -6 80 217 80 133 0 191 -4 203 -12z m-155
-62 c37 -19 50 -42 33 -59 -8 -8 -11 -6 -11 10 0 13 -8 24 -20 28 -11 3 -20
11 -20 16 0 5 -4 9 -10 9 -5 0 -10 -10 -10 -22 -1 -23 -1 -23 -16 -3 -11 15
-17 17 -22 8 -6 -10 -13 -9 -30 3 -12 8 -22 19 -22 23 0 14 94 5 128 -13z
m-138 -16 c0 -5 -10 -10 -22 -9 -22 0 -22 1 -3 9 11 5 21 9 23 9 1 1 2 -3 2
-9z m460 -120 c0 -5 -2 -10 -4 -10 -3 0 -8 5 -11 10 -3 6 -1 10 4 10 6 0 11
-4 11 -10z m490 0 c0 -5 -4 -10 -10 -10 -5 0 -10 5 -10 10 0 6 5 10 10 10 6 0
10 -4 10 -10z"/>
<path d="M265 1096 c-58 -25 -66 -44 -72 -164 l-6 -110 49 -6 c126 -16 112
-20 118 32 3 26 8 81 11 122 10 120 -6 110 171 110 l154 0 0 -35 0 -35 -99 0
c-116 0 -111 6 -111 -127 l0 -83 83 0 c46 0 87 -4 93 -10 10 -10 11 -8 22 120
l7 75 63 3 c57 3 62 1 62 -18 l0 -20 37 20 c47 25 124 26 164 3 37 -22 49 -58
50 -152 1 -42 4 -64 6 -48 4 27 22 38 24 15 1 -7 7 16 15 51 25 113 60 142
184 148 64 4 82 1 120 -19 53 -27 80 -73 80 -135 0 -45 16 -58 25 -20 3 12 6
64 8 116 l2 94 129 -2 c71 -1 139 -6 152 -11 34 -13 46 -44 52 -137 4 -68 7
-81 18 -72 8 6 15 8 16 3 1 -5 4 36 7 91 l6 100 60 0 c54 0 60 -2 63 -22 l3
-22 36 25 c49 33 126 33 174 1 l34 -23 34 23 c41 28 126 31 172 7 35 -18 59
-67 59 -119 l0 -36 229 7 230 6 6 -39 c16 -95 15 -25 -2 169 -7 83 -30 112
-104 127 -80 17 -2595 14 -2634 -3z m2484 -80 c9 -11 10 -20 1 -36 -22 -42
-104 -10 -87 34 8 20 70 22 86 2z"/>
<path d="M2725 1001 c-3 -5 -1 -12 5 -16 5 -3 10 1 10 9 0 18 -6 21 -15 7z"/>
<path d="M2700 980 c0 -5 5 -10 11 -10 5 0 7 5 4 10 -3 6 -8 10 -11 10 -2 0
-4 -4 -4 -10z"/>
<path d="M1630 878 l0 -83 50 3 c37 3 50 0 51 -10 2 -37 18 35 18 84 1 70 -14
88 -75 88 l-44 0 0 -82z"/>
<path d="M1279 913 c-24 -6 -39 -47 -32 -86 5 -35 6 -35 49 -32 34 3 44 1 47
-13 3 -9 5 11 6 45 1 53 -2 64 -21 77 -12 9 -25 15 -28 15 -3 -1 -12 -3 -21
-6z"/>
<path d="M2054 895 c-11 -16 -14 -34 -9 -55 6 -28 9 -30 56 -30 l49 0 0 39 c0
68 -62 98 -96 46z"/>
<path d="M2306 901 c-10 -11 -16 -31 -14 -47 2 -24 8 -29 33 -30 17 0 41 3 54
8 20 7 23 13 17 40 -10 51 -57 66 -90 29z"/>
<path d="M824 885 c-11 -17 -14 -35 -10 -60 7 -33 8 -34 49 -32 46 2 55 13 56
63 1 37 -15 54 -51 54 -18 0 -33 -8 -44 -25z"/>
<path d="M647 711 c-5 -19 -12 -21 -91 -21 l-86 0 0 -140 0 -140 103 0 102 0
-3 147 c-4 144 -13 200 -25 154z"/>
<path d="M810 526 l0 -206 55 0 55 0 0 188 c0 103 -4 192 -8 198 -4 6 -24 11
-45 12 -21 1 -42 4 -47 7 -6 4 -10 -72 -10 -199z"/>
<path d="M1057 710 c-4 -14 -7 -107 -7 -207 l0 -181 81 -4 c44 -2 83 -1 85 2
3 2 -10 11 -27 20 -65 31 -73 54 -80 228 -4 86 -7 159 -8 161 0 2 -7 -2 -15
-8 -11 -9 -15 -9 -18 1 -3 7 -7 1 -11 -12z"/>
<path d="M1337 724 c-4 -5 -27 -8 -50 -9 l-42 0 -3 -140 c-3 -148 2 -167 44
-179 13 -4 29 0 43 11 21 17 22 24 19 171 -2 85 -7 150 -11 146z"/>
<path d="M1836 722 c-3 -6 -20 -13 -36 -17 -30 -7 -42 -25 -16 -25 8 0 24 -9
37 -19 23 -18 24 -26 29 -182 l5 -163 25 0 25 0 3 119 c2 66 0 157 -3 201 -6
76 -8 81 -27 76 -11 -2 -24 1 -28 8 -5 8 -10 9 -14 2z"/>
<path d="M1490 608 c-1 -180 -19 -234 -89 -270 -42 -21 -32 -25 54 -20 l70 3
-5 196 c-4 145 -8 197 -17 201 -10 3 -13 -24 -13 -110z"/>
<path d="M2044 709 c-2 -4 -6 -324 -4 -387 0 -10 15 -12 58 -10 55 3 57 4 61
33 1 17 0 107 -4 200 l-7 170 -50 0 c-27 0 -52 -3 -54 -6z"/>
<path d="M2288 530 c-1 -99 -2 -188 -2 -197 -1 -15 8 -18 57 -18 l57 -1 0 198
0 198 -55 0 -55 0 -2 -180z"/>
<path d="M1628 535 c-1 -58 -2 -130 -3 -161 l0 -56 64 0 64 0 -2 132 c-3 177
-9 190 -87 190 l-34 0 -2 -105z"/>
</g>
</svg>
